# xmcd
#
# Track frame offsets: 
#        182
#        14470
#        30820
#        45335
#        62152
#        75377
#        107107
#        127962
#        148155
#        163797
#        184075
#        214655
#        232167
#        252265
#
# Disc length: 3653 seconds
#
# Revision: 5
# Processed by: cddbd v1.5.2PL0 Copyright (c) Steve Scherf et al.
# Submitted via: ExactAudioCopy v0.99pb4
#
DISCID=b70e430e
DTITLE=Mary Coughlan - Live In Galway
DYEAR=1996
DGENRE=Blues
TTITLE0=Laziest Girl
TTITLE1=The Beach
TTITLE2=Hearts
TTITLE3=Country Fair Dance
TTITLE4=I Want to be Seduced
TTITLE5=Ancient Rain
TTITLE6=Sweet Victim
TTITLE7=Not Up to Scratch
TTITLE8=Just A Friend
TTITLE9=Blue Surrender
TTITLE10=Magdalan Laundry
TTITLE11=My Land is Too Green
TTITLE12=Delaney
TTITLE13=Nobody's Business - Tango
EXTD=Submitted by: ecto@home.com\nhttp://members.home.net/ecto/
EXTT0=
EXTT1=
EXTT2=
EXTT3=
EXTT4=
EXTT5=
EXTT6=
EXTT7=
EXTT8=
EXTT9=
EXTT10=
EXTT11=
EXTT12=
EXTT13=
PLAYORDER=
